<svg xmlns="http://www.w3.org/2000/svg" xmlns:xlink="http://www.w3.org/1999/xlink" width="500" zoomAndPan="magnify" viewBox="0 0 375 374.999991" height="500" preserveAspectRatio="xMidYMid meet" version="1.0"><defs><g/><clipPath id="b024b167be"><path d="M 169.023438 198.742188 L 195.390625 198.742188 L 195.390625 224 L 169.023438 224 Z M 169.023438 198.742188 " clip-rule="nonzero"/></clipPath><clipPath id="ea9e39d04f"><path d="M 175.023438 198.742188 L 189.332031 198.742188 C 190.921875 198.742188 192.449219 199.375 193.574219 200.5 C 194.699219 201.625 195.332031 203.152344 195.332031 204.742188 L 195.332031 217.9375 C 195.332031 219.53125 194.699219 221.058594 193.574219 222.183594 C 192.449219 223.308594 190.921875 223.9375 189.332031 223.9375 L 175.023438 223.9375 C 173.433594 223.9375 171.90625 223.308594 170.78125 222.183594 C 169.65625 221.058594 169.023438 219.53125 169.023438 217.9375 L 169.023438 204.742188 C 169.023438 203.152344 169.65625 201.625 170.78125 200.5 C 171.90625 199.375 173.433594 198.742188 175.023438 198.742188 " clip-rule="nonzero"/></clipPath></defs><g clip-path="url(#b024b167be)"><g clip-path="url(#ea9e39d04f)"><path fill="#3a63b4" d="M 169.023438 198.742188 L 195.390625 198.742188 L 195.390625 223.9375 L 169.023438 223.9375 Z M 169.023438 198.742188 " fill-opacity="1" fill-rule="nonzero"/></g></g><g fill="#ffffff" fill-opacity="1"><g transform="translate(96.74414, 193.774982)"><g><path d="M 8.265625 -9.453125 C 8.265625 -7.960938 8.566406 -6.910156 9.171875 -6.296875 C 9.785156 -5.691406 10.597656 -5.390625 11.609375 -5.390625 C 12.628906 -5.390625 13.441406 -5.691406 14.046875 -6.296875 C 14.660156 -6.910156 14.96875 -7.960938 14.96875 -9.453125 L 14.96875 -31.625 C 14.96875 -33.113281 14.660156 -34.160156 14.046875 -34.765625 C 13.441406 -35.367188 12.628906 -35.671875 11.609375 -35.671875 C 10.597656 -35.671875 9.785156 -35.367188 9.171875 -34.765625 C 8.566406 -34.160156 8.265625 -33.113281 8.265625 -31.625 Z M 1.8125 -31.21875 C 1.8125 -34.539062 2.648438 -37.09375 4.328125 -38.875 C 6.015625 -40.65625 8.441406 -41.546875 11.609375 -41.546875 C 14.785156 -41.546875 17.210938 -40.65625 18.890625 -38.875 C 20.578125 -37.09375 21.421875 -34.539062 21.421875 -31.21875 L 21.421875 -9.859375 C 21.421875 -6.535156 20.578125 -3.984375 18.890625 -2.203125 C 17.210938 -0.421875 14.785156 0.46875 11.609375 0.46875 C 8.441406 0.46875 6.015625 -0.421875 4.328125 -2.203125 C 2.648438 -3.984375 1.8125 -6.535156 1.8125 -9.859375 Z M 1.8125 -31.21875 "/></g></g></g><g fill="#ffffff" fill-opacity="1"><g transform="translate(126.017661, 193.774982)"><g><path d="M 12.03125 -22.875 L 21.0625 -22.875 L 21.0625 -9.859375 C 21.0625 -6.535156 20.25 -3.984375 18.625 -2.203125 C 17 -0.421875 14.601562 0.46875 11.4375 0.46875 C 8.269531 0.46875 5.875 -0.421875 4.25 -2.203125 C 2.625 -3.984375 1.8125 -6.535156 1.8125 -9.859375 L 1.8125 -31.21875 C 1.8125 -34.539062 2.625 -37.09375 4.25 -38.875 C 5.875 -40.65625 8.269531 -41.546875 11.4375 -41.546875 C 14.601562 -41.546875 17 -40.65625 18.625 -38.875 C 20.25 -37.09375 21.0625 -34.539062 21.0625 -31.21875 L 21.0625 -27.21875 L 14.96875 -27.21875 L 14.96875 -31.625 C 14.96875 -33.113281 14.660156 -34.160156 14.046875 -34.765625 C 13.441406 -35.367188 12.628906 -35.671875 11.609375 -35.671875 C 10.597656 -35.671875 9.785156 -35.367188 9.171875 -34.765625 C 8.566406 -34.160156 8.265625 -33.113281 8.265625 -31.625 L 8.265625 -9.453125 C 8.265625 -7.960938 8.566406 -6.921875 9.171875 -6.328125 C 9.785156 -5.742188 10.597656 -5.453125 11.609375 -5.453125 C 12.628906 -5.453125 13.441406 -5.742188 14.046875 -6.328125 C 14.660156 -6.921875 14.96875 -7.960938 14.96875 -9.453125 L 14.96875 -17.015625 L 12.03125 -17.015625 Z M 12.03125 -22.875 "/></g></g></g><g fill="#ffffff" fill-opacity="1"><g transform="translate(154.939196, 193.774982)"><g><path d="M 23.234375 0 L 16.71875 0 L 15.609375 -7.453125 L 7.6875 -7.453125 L 6.578125 0 L 0.640625 0 L 7.21875 -41.078125 L 16.65625 -41.078125 Z M 8.5 -13.03125 L 14.734375 -13.03125 L 11.609375 -33.796875 Z M 8.5 -13.03125 "/></g></g></g><g fill="#ffffff" fill-opacity="1"><g transform="translate(184.858016, 193.774982)"><g><path d="M 16.015625 -11.90625 L 20.421875 -41.078125 L 29.390625 -41.078125 L 29.390625 0 L 23.296875 0 L 23.296875 -29.453125 L 18.828125 0 L 12.734375 0 L 7.921875 -29.046875 L 7.921875 0 L 2.28125 0 L 2.28125 -41.078125 L 11.265625 -41.078125 Z M 16.015625 -11.90625 "/></g></g></g><g fill="#ffffff" fill-opacity="1"><g transform="translate(222.637816, 193.774982)"><g><path d="M 8.796875 -23.765625 L 17.65625 -23.765625 L 17.65625 -17.890625 L 8.796875 -17.890625 L 8.796875 -5.875 L 19.953125 -5.875 L 19.953125 0 L 2.34375 0 L 2.34375 -41.078125 L 19.953125 -41.078125 L 19.953125 -35.203125 L 8.796875 -35.203125 Z M 8.796875 -23.765625 "/></g></g></g><g fill="#ffffff" fill-opacity="1"><g transform="translate(250.26875, 193.774982)"><g><path d="M 1.53125 -31.21875 C 1.53125 -34.539062 2.320312 -37.09375 3.90625 -38.875 C 5.488281 -40.65625 7.863281 -41.546875 11.03125 -41.546875 C 14.195312 -41.546875 16.570312 -40.65625 18.15625 -38.875 C 19.738281 -37.09375 20.53125 -34.539062 20.53125 -31.21875 L 20.53125 -29.625 L 14.4375 -29.625 L 14.4375 -31.625 C 14.4375 -33.113281 14.148438 -34.160156 13.578125 -34.765625 C 13.015625 -35.367188 12.222656 -35.671875 11.203125 -35.671875 C 10.191406 -35.671875 9.398438 -35.367188 8.828125 -34.765625 C 8.265625 -34.160156 7.984375 -33.113281 7.984375 -31.625 C 7.984375 -30.21875 8.296875 -28.972656 8.921875 -27.890625 C 9.546875 -26.816406 10.328125 -25.800781 11.265625 -24.84375 C 12.203125 -23.882812 13.207031 -22.925781 14.28125 -21.96875 C 15.363281 -21.007812 16.375 -19.960938 17.3125 -18.828125 C 18.25 -17.691406 19.03125 -16.398438 19.65625 -14.953125 C 20.28125 -13.515625 20.59375 -11.816406 20.59375 -9.859375 C 20.59375 -6.535156 19.78125 -3.984375 18.15625 -2.203125 C 16.53125 -0.421875 14.132812 0.46875 10.96875 0.46875 C 7.800781 0.46875 5.40625 -0.421875 3.78125 -2.203125 C 2.15625 -3.984375 1.34375 -6.535156 1.34375 -9.859375 L 1.34375 -12.671875 L 7.453125 -12.671875 L 7.453125 -9.453125 C 7.453125 -7.960938 7.753906 -6.921875 8.359375 -6.328125 C 8.960938 -5.742188 9.773438 -5.453125 10.796875 -5.453125 C 11.816406 -5.453125 12.628906 -5.742188 13.234375 -6.328125 C 13.835938 -6.921875 14.140625 -7.960938 14.140625 -9.453125 C 14.140625 -10.859375 13.828125 -12.097656 13.203125 -13.171875 C 12.578125 -14.242188 11.796875 -15.257812 10.859375 -16.21875 C 9.921875 -17.175781 8.910156 -18.132812 7.828125 -19.09375 C 6.753906 -20.050781 5.75 -21.097656 4.8125 -22.234375 C 3.875 -23.367188 3.09375 -24.660156 2.46875 -26.109375 C 1.84375 -27.554688 1.53125 -29.257812 1.53125 -31.21875 Z M 1.53125 -31.21875 "/></g></g></g><g fill="#ffffff" fill-opacity="1"><g transform="translate(105.011717, 220.158427)"><g><path d="M 5.34375 -19.796875 C 6.851562 -19.796875 7.96875 -19.347656 8.6875 -18.453125 C 9.40625 -17.554688 9.765625 -16.363281 9.765625 -14.875 L 9.765625 -13.109375 L 7.703125 -13.109375 L 7.703125 -14.984375 C 7.703125 -15.878906 7.519531 -16.570312 7.15625 -17.0625 C 6.789062 -17.5625 6.207031 -17.8125 5.40625 -17.8125 C 4.625 -17.8125 4.046875 -17.5625 3.671875 -17.0625 C 3.296875 -16.570312 3.109375 -15.878906 3.109375 -14.984375 L 3.109375 -4.625 C 3.109375 -3.726562 3.296875 -3.03125 3.671875 -2.53125 C 4.046875 -2.039062 4.625 -1.796875 5.40625 -1.796875 C 6.207031 -1.796875 6.789062 -2.039062 7.15625 -2.53125 C 7.519531 -3.03125 7.703125 -3.726562 7.703125 -4.625 L 7.703125 -7.171875 L 9.765625 -7.171875 L 9.765625 -4.734375 C 9.765625 -3.234375 9.40625 -2.035156 8.6875 -1.140625 C 7.96875 -0.242188 6.851562 0.203125 5.34375 0.203125 C 3.851562 0.203125 2.75 -0.242188 2.03125 -1.140625 C 1.3125 -2.035156 0.953125 -3.234375 0.953125 -4.734375 L 0.953125 -14.875 C 0.953125 -15.613281 1.039062 -16.285156 1.21875 -16.890625 C 1.394531 -17.503906 1.664062 -18.023438 2.03125 -18.453125 C 2.394531 -18.878906 2.851562 -19.207031 3.40625 -19.4375 C 3.957031 -19.675781 4.601562 -19.796875 5.34375 -19.796875 Z M 5.34375 -19.796875 "/></g></g></g><g fill="#ffffff" fill-opacity="1"><g transform="translate(127.606227, 220.158427)"><g><path d="M 0.953125 -14.875 C 0.953125 -16.382812 1.316406 -17.582031 2.046875 -18.46875 C 2.785156 -19.351562 3.914062 -19.796875 5.4375 -19.796875 C 6.945312 -19.796875 8.070312 -19.351562 8.8125 -18.46875 C 9.5625 -17.582031 9.9375 -16.382812 9.9375 -14.875 L 9.9375 -4.734375 C 9.9375 -3.234375 9.5625 -2.035156 8.8125 -1.140625 C 8.070312 -0.242188 6.945312 0.203125 5.4375 0.203125 C 3.914062 0.203125 2.785156 -0.242188 2.046875 -1.140625 C 1.316406 -2.035156 0.953125 -3.234375 0.953125 -4.734375 Z M 3.109375 -4.625 C 3.109375 -3.726562 3.296875 -3.03125 3.671875 -2.53125 C 4.054688 -2.039062 4.644531 -1.796875 5.4375 -1.796875 C 6.238281 -1.796875 6.820312 -2.039062 7.1875 -2.53125 C 7.5625 -3.03125 7.75 -3.726562 7.75 -4.625 L 7.75 -14.984375 C 7.75 -15.878906 7.5625 -16.570312 7.1875 -17.0625 C 6.820312 -17.5625 6.238281 -17.8125 5.4375 -17.8125 C 4.644531 -17.8125 4.054688 -17.5625 3.671875 -17.0625 C 3.296875 -16.570312 3.109375 -15.878906 3.109375 -14.984375 Z M 3.109375 -4.625 "/></g></g></g><g fill="#ffffff" fill-opacity="1"><g transform="translate(150.4527, 220.158427)"><g><path d="M 8.34375 -0.03125 L 6.25 -0.03125 L 3 -15.625 L 3 0 L 1.09375 0 L 1.09375 -19.59375 L 4.140625 -19.59375 L 7.359375 -3.953125 L 10.46875 -19.59375 L 13.53125 -19.59375 L 13.53125 0 L 11.453125 0 L 11.453125 -15.765625 Z M 8.34375 -0.03125 "/></g></g></g><g fill="#ffffff" fill-opacity="1"><g transform="translate(177.050662, 220.158427)"><g><path d="M 5.40625 -19.59375 C 6.957031 -19.59375 8.078125 -19.164062 8.765625 -18.3125 C 9.453125 -17.46875 9.796875 -16.300781 9.796875 -14.8125 L 9.796875 -12.453125 C 9.796875 -10.890625 9.425781 -9.710938 8.6875 -8.921875 C 7.957031 -8.128906 6.804688 -7.734375 5.234375 -7.734375 L 3.296875 -7.734375 L 3.296875 0 L 1.125 0 L 1.125 -19.59375 Z M 5.234375 -9.6875 C 6.054688 -9.6875 6.660156 -9.882812 7.046875 -10.28125 C 7.441406 -10.6875 7.640625 -11.363281 7.640625 -12.3125 L 7.640625 -14.921875 C 7.640625 -15.816406 7.46875 -16.488281 7.125 -16.9375 C 6.78125 -17.382812 6.207031 -17.609375 5.40625 -17.609375 L 3.296875 -17.609375 L 3.296875 -9.6875 Z M 5.234375 -9.6875 "/></g></g></g><g fill="#ffffff" fill-opacity="1"><g transform="translate(199.477195, 220.158427)"><g><path d="M 3.328125 -3.953125 L 2.578125 0 L 0.5625 0 L 4.3125 -19.59375 L 7.46875 -19.59375 L 11.234375 0 L 9.046875 0 L 8.28125 -3.953125 Z M 3.609375 -5.828125 L 7.984375 -5.828125 L 5.765625 -17.140625 Z M 3.609375 -5.828125 "/></g></g></g><g fill="#ffffff" fill-opacity="1"><g transform="translate(223.247534, 220.158427)"><g><path d="M 3.046875 0 L 1.09375 0 L 1.09375 -19.59375 L 3.859375 -19.59375 L 8.40625 -5.4375 L 8.40625 -19.59375 L 10.328125 -19.59375 L 10.328125 0 L 8.0625 0 L 3.046875 -15.84375 Z M 3.046875 0 "/></g></g></g><g fill="#ffffff" fill-opacity="1"><g transform="translate(246.653927, 220.158427)"><g><path d="M 4.59375 -7.03125 L 0.453125 -19.59375 L 2.71875 -19.59375 L 5.765625 -9.96875 L 8.84375 -19.59375 L 10.921875 -19.59375 L 6.75 -7.03125 L 6.75 0 L 4.59375 0 Z M 4.59375 -7.03125 "/></g></g></g></svg>